<svg width="218" height="59" viewBox="0 0 218 59" fill="none" xmlns="http://www.w3.org/2000/svg">
<path d="M17.9568 56.3509L11.9976 46.0292L20.743 30.923L26.3005 40.5496L59.107 40.5319L49.798 56.4934L17.9568 56.3509Z" fill="#FFAD64"/>
<path d="M64.9646 30.2831L59.0054 40.6047L41.5505 40.5841L47.1085 30.9579L30.6899 2.55548L49.1675 2.63655L64.9646 30.2831Z" fill="#ADD4D3"/>
<path d="M18.8747 2.49982H30.7931L39.5028 17.6268L28.3871 17.6264L11.9992 46.0465L2.83057 30.0039L18.8747 2.49982Z" fill="#FB8351"/>
<path fill-rule="evenodd" clip-rule="evenodd" d="M32.2463 0.11018L32.2108 0.0485229H17.4668L0 29.9917L11.99 50.9708L12.0047 50.9454L16.5374 58.7963L51.2023 58.9514L63.3759 38.078H63.2949L67.792 30.289L50.5939 0.190677L32.2463 0.11018ZM43.6518 20.0787H43.7437L35.0767 5.02591L47.7413 5.08144L62.1375 30.2763L57.6314 38.0812L45.8226 38.0875L49.9399 30.9566L43.6518 20.0787ZM29.2438 4.9517L35.1536 15.1752L26.9712 15.175L12.9627 39.4685L12.0072 41.1191L5.6619 30.0166L20.2831 4.9517H29.2438ZM23.5619 30.9028L29.8037 20.0783L37.9881 20.0786L44.2772 30.9581L40.159 38.0906L27.7154 38.0973L23.5619 30.9028ZM14.8338 46.0391L17.2085 41.9211L20.7398 35.8214L24.8853 43.0021L37.327 42.9953L37.3069 43.0302L54.7996 43.0509L48.3932 54.0356L19.3756 53.9057L14.8338 46.0391Z" fill="#333237"/>
<path d="M82.0712 50.4219V38.9444H77.8291V37.6559H87.9389V38.9444H83.6967V50.4219H82.0712Z" fill="white"/>
<path d="M92.4556 50.6207C90.7772 50.6207 89.5218 50.2177 88.6893 49.4115C87.8566 48.6054 87.4404 47.3632 87.4404 45.6847C87.4404 44.1783 87.7972 42.9955 88.5109 42.1364C89.2376 41.2642 90.3809 40.8281 91.9403 40.8281C92.8653 40.8281 93.6251 40.9999 94.2199 41.3436C94.8277 41.6739 95.2772 42.1364 95.5679 42.7312C95.8718 43.3126 96.0238 43.9734 96.0238 44.7135V46.4777H89.0659C89.1187 47.1913 89.2707 47.7529 89.5218 48.1627C89.7861 48.5723 90.1759 48.8696 90.6914 49.0547C91.2199 49.2264 91.9139 49.3124 92.7728 49.3124C93.7375 49.3124 94.6229 49.1472 95.429 48.8168V50.0855C95.0194 50.2573 94.5568 50.3895 94.0415 50.482C93.5392 50.5745 93.0107 50.6207 92.4556 50.6207ZM89.0659 45.3082H94.5767V44.5351C94.5767 43.7685 94.3719 43.1805 93.9621 42.7708C93.5658 42.3479 92.9049 42.1364 91.9798 42.1364C90.8566 42.1364 90.0901 42.4008 89.6804 42.9294C89.2707 43.4579 89.0659 44.2509 89.0659 45.3082Z" fill="white"/>
<path d="M102.847 50.6207C101.208 50.6207 99.9921 50.1978 99.1992 49.352C98.4063 48.4931 98.0098 47.2838 98.0098 45.7244C98.0098 44.0725 98.4591 42.8435 99.3578 42.0374C100.256 41.2313 101.466 40.8281 102.985 40.8281C103.607 40.8281 104.122 40.8743 104.532 40.9669C104.941 41.0461 105.338 41.1783 105.721 41.3633V42.6518C105.007 42.3083 104.195 42.1364 103.283 42.1364C102.12 42.1364 101.221 42.414 100.587 42.9691C99.9524 43.5109 99.6353 44.4293 99.6353 45.7244C99.6353 46.9667 99.9129 47.8785 100.468 48.46C101.023 49.0283 101.941 49.3124 103.223 49.3124C104.135 49.3124 104.974 49.1407 105.741 48.797V50.1053C105.331 50.2772 104.888 50.4026 104.413 50.482C103.95 50.5745 103.428 50.6207 102.847 50.6207Z" fill="white"/>
<path d="M107.563 50.4219V37.0612H109.188V42.0368C109.625 41.68 110.133 41.3893 110.715 41.1646C111.31 40.9399 111.997 40.8275 112.776 40.8275C113.913 40.8275 114.765 41.1051 115.334 41.6602C115.902 42.2152 116.186 43.0874 116.186 44.2768V50.4219H114.561V44.3363C114.561 43.5169 114.376 42.9487 114.006 42.6314C113.649 42.3012 113.054 42.1359 112.221 42.1359C111.693 42.1359 111.144 42.2548 110.576 42.4927C110.021 42.7174 109.559 43.0148 109.188 43.3847V50.4219H107.563Z" fill="white"/>
<path d="M122.669 50.6206C121.347 50.6206 120.29 50.3299 119.497 49.7483C118.704 49.1668 118.308 48.3871 118.308 47.4091C118.308 46.5105 118.585 45.7374 119.14 45.0899C119.695 44.4423 120.455 43.8674 121.42 43.3653C120.904 42.8499 120.468 42.3675 120.112 41.9182C119.755 41.4689 119.576 40.927 119.576 40.2927C119.576 39.4997 119.847 38.8324 120.389 38.2906C120.944 37.7355 121.724 37.4581 122.728 37.4581C123.706 37.4581 124.466 37.7157 125.008 38.2311C125.549 38.7464 125.821 39.4337 125.821 40.2927C125.821 41.0064 125.629 41.6077 125.245 42.0966C124.862 42.5856 124.314 43.0811 123.6 43.5834L126.891 46.9334C127.115 46.4445 127.228 45.8233 127.228 45.07V44.7926H128.517V45.07C128.517 45.5855 128.457 46.0877 128.338 46.5766C128.22 47.0656 128.047 47.4885 127.823 47.8453L129.607 49.6492L128.615 50.5413L127.029 48.9753C126.567 49.5435 125.966 49.9598 125.226 50.2241C124.486 50.4884 123.633 50.6206 122.669 50.6206ZM122.589 42.7904C123.211 42.4072 123.68 42.0438 123.997 41.7001C124.314 41.3433 124.473 40.894 124.473 40.3522C124.473 39.85 124.334 39.4535 124.056 39.1628C123.792 38.8589 123.349 38.7069 122.728 38.7069C122.094 38.7069 121.631 38.8655 121.341 39.1826C121.063 39.4998 120.924 39.8897 120.924 40.3522C120.924 40.7751 121.07 41.1649 121.36 41.5217C121.664 41.8785 122.074 42.3014 122.589 42.7904ZM122.669 49.451C123.435 49.451 124.089 49.3386 124.631 49.114C125.186 48.8761 125.655 48.526 126.039 48.0634L122.411 44.3564C121.552 44.7529 120.911 45.1823 120.488 45.6449C120.079 46.0942 119.874 46.6691 119.874 47.3696C119.874 48.0567 120.138 48.5788 120.667 48.9356C121.195 49.2791 121.863 49.451 122.669 49.451Z" fill="#FB8351"/>
<path d="M78.4697 28.3895V10.7134H83.6298V24.437H91.5896V28.3895H78.4697Z" fill="#FB8351"/>
<path d="M99.8904 28.6642C97.2921 28.6642 95.3707 28.0877 94.1265 26.9349C92.9006 25.7821 92.2876 24.0987 92.2876 21.8846C92.2876 19.6889 92.9097 18.0146 94.154 16.8618C95.3983 15.6908 97.3104 15.1052 99.8904 15.1052C102.489 15.1052 104.41 15.6908 105.654 16.8618C106.917 18.0146 107.548 19.6889 107.548 21.8846C107.548 24.0987 106.926 25.7821 105.682 26.9349C104.438 28.0877 102.507 28.6642 99.8904 28.6642ZM99.8904 24.9038C100.732 24.9038 101.336 24.666 101.702 24.1902C102.086 23.7145 102.278 22.9459 102.278 21.8846C102.278 20.8417 102.086 20.0823 101.702 19.6066C101.336 19.1125 100.732 18.8654 99.8904 18.8654C99.067 18.8654 98.4723 19.1125 98.1064 19.6066C97.7404 20.0823 97.5574 20.8417 97.5574 21.8846C97.5574 22.9459 97.7404 23.7145 98.1064 24.1902C98.4723 24.666 99.067 24.9038 99.8904 24.9038Z" fill="#FB8351"/>
<path d="M115.191 33.2204C114.55 33.2204 113.855 33.193 113.105 33.138C112.354 33.1015 111.641 33.0283 110.964 32.9185C110.305 32.8088 109.756 32.6806 109.317 32.5342V29.2405C109.811 29.4052 110.378 29.5425 111.019 29.6523C111.677 29.762 112.345 29.8444 113.022 29.8993C113.699 29.9541 114.321 29.9817 114.889 29.9817C115.858 29.9817 116.618 29.9267 117.167 29.817C117.734 29.7255 118.018 29.5516 118.018 29.2955C118.018 29.0759 117.926 28.9295 117.743 28.8563C117.56 28.8013 117.213 28.7739 116.7 28.7739H113.269C111.934 28.7739 110.9 28.5636 110.168 28.1427C109.454 27.7035 109.097 27.054 109.097 26.1939C109.097 24.9862 109.765 24.1445 111.101 23.6688C110.351 23.2845 109.802 22.7996 109.454 22.214C109.106 21.6286 108.933 20.8874 108.933 19.9908C108.933 18.3073 109.5 17.0722 110.634 16.2854C111.787 15.4987 113.443 15.1052 115.602 15.1052C116.06 15.1052 116.572 15.1417 117.139 15.2149C117.707 15.2699 118.118 15.3248 118.374 15.3796H123.48L123.37 18.5086H121.641C121.97 18.9295 122.135 19.4419 122.135 20.0457C122.135 21.3815 121.741 22.4428 120.954 23.2296C120.186 23.9981 118.969 24.3824 117.304 24.3824C117.066 24.3824 116.81 24.3733 116.535 24.3549C116.261 24.3184 116.005 24.2909 115.767 24.2725C115.364 24.3092 115.017 24.3824 114.724 24.4922C114.431 24.6019 114.285 24.7849 114.285 25.0411C114.285 25.2241 114.367 25.3523 114.532 25.4253C114.697 25.4803 114.925 25.5077 115.218 25.5077H118.21C119.546 25.5077 120.598 25.8188 121.366 26.441C122.135 27.0631 122.519 27.978 122.519 29.1857C122.519 30.4665 121.924 31.4546 120.735 32.15C119.546 32.8636 117.698 33.2204 115.191 33.2204ZM115.63 21.5553C116.435 21.5553 116.993 21.418 117.304 21.1436C117.615 20.8691 117.771 20.4117 117.771 19.7713C117.771 19.1307 117.615 18.6642 117.304 18.3714C116.993 18.0787 116.435 17.9323 115.63 17.9323C114.88 17.9323 114.331 18.0787 113.983 18.3714C113.654 18.6459 113.489 19.1125 113.489 19.7713C113.489 20.3934 113.644 20.8508 113.955 21.1436C114.285 21.418 114.843 21.5553 115.63 21.5553Z" fill="#FB8351"/>
<path d="M131.895 28.6642C129.296 28.6642 127.375 28.0877 126.131 26.9349C124.905 25.7821 124.292 24.0987 124.292 21.8846C124.292 19.6889 124.914 18.0146 126.158 16.8618C127.402 15.6908 129.315 15.1052 131.895 15.1052C134.493 15.1052 136.414 15.6908 137.658 16.8618C138.922 18.0146 139.552 19.6889 139.552 21.8846C139.552 24.0987 138.93 25.7821 137.686 26.9349C136.441 28.0877 134.511 28.6642 131.895 28.6642ZM131.895 24.9038C132.736 24.9038 133.34 24.666 133.706 24.1902C134.09 23.7145 134.283 22.9459 134.283 21.8846C134.283 20.8417 134.09 20.0823 133.706 19.6066C133.34 19.1125 132.736 18.8654 131.895 18.8654C131.072 18.8654 130.476 19.1125 130.11 19.6066C129.744 20.0823 129.562 20.8417 129.562 21.8846C129.562 22.9459 129.744 23.7145 130.11 24.1902C130.476 24.666 131.072 24.9038 131.895 24.9038Z" fill="#FB8351"/>
<path d="M141.82 13.6499V9.91705H147.392V13.6499H141.82ZM142.231 28.3891V19.1394H140.339L140.777 15.3791H147.392V28.3891H142.231Z" fill="white"/>
<path d="M149.867 34.3182V15.3796H154.342L154.589 16.4225C155.118 16.0018 155.695 15.6815 156.317 15.462C156.958 15.2241 157.699 15.1052 158.541 15.1052C160.48 15.1052 161.972 15.5991 163.015 16.5872C164.075 17.557 164.606 19.2131 164.606 21.5552C164.606 23.8792 164.048 25.6448 162.932 26.8526C161.816 28.0603 160.279 28.664 158.321 28.664C157.022 28.664 155.924 28.4171 155.027 27.923V34.3182H149.867ZM157.003 24.9038C157.754 24.9038 158.331 24.6385 158.733 24.1078C159.136 23.5772 159.337 22.7538 159.337 21.6375C159.337 20.558 159.144 19.8261 158.76 19.4419C158.394 19.0575 157.827 18.8654 157.058 18.8654C156.29 18.8654 155.613 19.1216 155.027 19.634V24.2451C155.321 24.4646 155.613 24.6293 155.906 24.7391C156.198 24.8489 156.564 24.9038 157.003 24.9038Z" fill="white"/>
<path d="M171.483 28.664C170.367 28.664 169.315 28.5818 168.327 28.4171C167.356 28.2707 166.589 28.0786 166.021 27.8407V24.1352C166.661 24.4281 167.421 24.6568 168.298 24.8215C169.196 24.9862 169.956 25.0685 170.576 25.0685C171.236 25.0685 171.73 25.0502 172.059 25.0136C172.408 24.977 172.58 24.8215 172.58 24.547C172.58 24.236 172.279 23.9981 171.675 23.8334C171.072 23.6687 170.312 23.4307 169.397 23.1197C168.207 22.6988 167.319 22.2049 166.734 21.6375C166.149 21.0704 165.856 20.247 165.856 19.1673C165.856 17.8682 166.369 16.871 167.394 16.1756C168.418 15.462 170.028 15.1052 172.223 15.1052C173.065 15.1052 173.935 15.1691 174.831 15.2973C175.727 15.4253 176.432 15.5717 176.945 15.7364V19.3595C176.395 19.1216 175.792 18.9477 175.134 18.838C174.493 18.7281 173.908 18.6733 173.377 18.6733C172.791 18.6733 172.269 18.7007 171.812 18.7556C171.354 18.8105 171.126 18.966 171.126 19.2222C171.126 19.5149 171.383 19.7255 171.895 19.8535C172.425 19.9817 173.13 20.1829 174.007 20.4574C174.997 20.7501 175.764 21.0704 176.314 21.418C176.881 21.7657 177.274 22.1865 177.494 22.6806C177.731 23.1747 177.851 23.7876 177.851 24.5196C177.851 25.8371 177.31 26.8617 176.231 27.5936C175.169 28.3072 173.586 28.664 171.483 28.664Z" fill="white"/>
<path d="M184.501 28.6636C182.982 28.6636 181.793 28.2337 180.933 27.3736C180.074 26.5136 179.644 25.251 179.644 23.5858V15.3792H184.804V23.1742C184.804 24.3086 185.38 24.8759 186.532 24.8759C186.953 24.8759 187.365 24.7844 187.768 24.6015C188.17 24.4185 188.49 24.1897 188.728 23.9153V15.3792H193.888V28.3891H189.058L188.921 27.401C188.409 27.767 187.777 28.069 187.027 28.3068C186.295 28.5447 185.453 28.6636 184.501 28.6636Z" fill="white"/>
<path d="M196.346 28.3896V15.3796H201.121L201.258 16.4225C201.826 16.0383 202.457 15.7273 203.152 15.4894C203.866 15.2332 204.644 15.1052 205.486 15.1052C206.326 15.1052 206.986 15.2241 207.461 15.462C207.938 15.6998 208.322 16.0474 208.614 16.5049C209.2 16.0841 209.859 15.7456 210.591 15.4894C211.34 15.2332 212.22 15.1052 213.226 15.1052C214.744 15.1052 215.861 15.5076 216.574 16.3128C217.288 17.0996 217.645 18.3073 217.645 19.9358V28.3896H212.566V20.5397C212.566 19.9541 212.448 19.5425 212.21 19.3046C211.973 19.0484 211.579 18.9203 211.029 18.9203C210.316 18.9203 209.73 19.1765 209.274 19.6888C209.309 19.9267 209.328 20.1555 209.328 20.375C209.328 20.5762 209.328 20.805 209.328 21.0612V28.3896H204.552V20.4574C204.552 19.9267 204.461 19.5425 204.278 19.3046C204.094 19.0484 203.747 18.9203 203.235 18.9203C202.887 18.9203 202.549 19.0118 202.219 19.1948C201.889 19.3778 201.597 19.5973 201.341 19.8535V28.3896H196.346Z" fill="white"/>
<path d="M138.011 50.7845C136.636 50.7845 135.493 50.5267 134.581 50.0113C133.683 49.4827 133.009 48.7492 132.56 47.8109C132.11 46.8595 131.886 45.7494 131.886 44.4807C131.886 43.0932 132.097 41.8839 132.52 40.8531C132.942 39.8223 133.603 39.0294 134.502 38.4743C135.402 37.9061 136.563 37.6219 137.991 37.6219C138.731 37.6219 139.398 37.6748 139.993 37.7805C140.601 37.8863 141.169 38.0316 141.699 38.2167V39.6439C141.169 39.4457 140.608 39.2937 140.013 39.1879C139.418 39.069 138.791 39.0095 138.13 39.0095C136.98 39.0095 136.068 39.2276 135.394 39.6638C134.721 40.0998 134.238 40.7275 133.947 41.5469C133.656 42.3663 133.51 43.3442 133.51 44.4807C133.51 46.0533 133.882 47.2692 134.621 48.1282C135.374 48.974 136.558 49.3969 138.169 49.3969C138.764 49.3969 139.365 49.3505 139.973 49.258C140.594 49.1655 141.169 49.0203 141.699 48.822V50.2691C141.182 50.4277 140.621 50.5531 140.013 50.6458C139.418 50.7382 138.751 50.7845 138.011 50.7845Z" fill="white"/>
<path d="M148.373 50.7839C146.734 50.7839 145.538 50.3676 144.785 49.5351C144.045 48.6893 143.676 47.4734 143.676 45.8876C143.676 44.3149 144.053 43.1057 144.805 42.26C145.558 41.4142 146.749 40.9913 148.373 40.9913C149.999 40.9913 151.189 41.4142 151.941 42.26C152.695 43.1057 153.071 44.3149 153.071 45.8876C153.071 47.4734 152.702 48.6893 151.961 49.5351C151.222 50.3676 150.026 50.7839 148.373 50.7839ZM148.373 49.3964C149.496 49.3964 150.29 49.1188 150.752 48.5637C151.215 47.9955 151.446 47.1035 151.446 45.8876C151.446 44.6717 151.209 43.7864 150.732 43.2313C150.27 42.663 149.483 42.3788 148.373 42.3788C147.264 42.3788 146.47 42.663 145.995 43.2313C145.533 43.7864 145.301 44.6717 145.301 45.8876C145.301 47.1035 145.533 47.9955 145.995 48.5637C146.457 49.1188 147.25 49.3964 148.373 49.3964Z" fill="white"/>
<path d="M155.058 50.5861V49.2184H156.525V50.5861H155.058Z" fill="white"/>
</svg>
