<svg width="296" height="59" viewBox="0 0 296 59" fill="none" xmlns="http://www.w3.org/2000/svg">
<path d="M42.6657 48.8306L3.18627 21.5977C-0.814495 18.8381 0.545503 13.0922 5.53435 11.741L47.4939 0.352723C48.3828 0.0320001 49.3353 -0.0721106 50.2724 0.0490339C51.2095 0.170178 52.1043 0.513083 52.8823 1.04929C53.6604 1.58549 54.2993 2.29953 54.7461 3.13215C55.193 3.96476 55.4347 4.89194 55.4514 5.83672L52.9647 44.4557C52.6698 49.0397 46.6665 51.5902 42.6657 48.8306Z" fill="#E9327C"/>
<path d="M30.1437 55.5531L6.88516 10.0681C6.3535 9.02755 6.11954 7.86037 6.20909 6.69528C6.29864 5.5302 6.70821 4.41247 7.39264 3.46538C8.07707 2.51828 9.00977 1.7786 10.0879 1.32792C11.166 0.87723 12.3476 0.733045 13.5025 0.911259L56.6064 7.56379C57.5988 7.71697 58.5406 8.10351 59.3545 8.69164C60.1684 9.27976 60.8311 10.0527 61.288 10.9468C61.745 11.841 61.9832 12.8308 61.983 13.8349C61.9829 14.8391 61.7444 15.8288 61.2872 16.7228L41.4308 55.5553C40.8976 56.5929 40.0887 57.4634 39.0929 58.0711C38.0972 58.6788 36.9531 59.0002 35.7866 59C34.62 58.9998 33.4761 58.6779 32.4806 58.0698C31.4851 57.4617 30.6765 56.5909 30.1437 55.5531Z" fill="#1DACE3"/>
<path d="M55.3458 7.36843L33.8588 4.05206L7.47754 11.2151L18.0076 31.8153L42.6658 48.8307C43.2098 49.2018 43.8081 49.4862 44.4395 49.6735L53.8054 31.3576L55.3458 7.36843Z" fill="#3A68B8"/>
<path d="M164.183 12.6849C164.183 11.8862 164.419 11.1055 164.863 10.4414C165.307 9.77734 165.938 9.25975 166.675 8.95411C167.413 8.64847 168.225 8.56851 169.009 8.72432C169.792 8.88014 170.511 9.26474 171.076 9.82949C171.641 10.3942 172.026 11.1138 172.181 11.8971C172.337 12.6804 172.257 13.4924 171.952 14.2302C171.646 14.9681 171.128 15.5988 170.464 16.0425C169.8 16.4862 169.019 16.7231 168.221 16.7231C167.153 16.7122 166.132 16.2832 165.377 15.5283C164.622 14.7733 164.194 13.7525 164.183 12.6849ZM164.856 18.6971H171.588V41.1304H164.856V18.6971Z" fill="white"/>
<path d="M200.658 29.9139C200.736 31.3967 200.521 32.8803 200.023 34.2795C199.526 35.6786 198.757 36.9656 197.761 38.0666C196.764 39.1675 195.56 40.0605 194.217 40.6944C192.875 41.3282 191.42 41.6904 189.937 41.7599C188.689 41.8279 187.442 41.6174 186.286 41.144C185.129 40.6705 184.093 39.9458 183.251 39.0223V50.1048H176.521V18.6972H183.251V20.8055C184.093 19.8824 185.13 19.1581 186.286 18.685C187.442 18.2119 188.689 18.0019 189.937 18.0701C191.42 18.1394 192.874 18.5012 194.217 19.1348C195.56 19.7685 196.764 20.6613 197.761 21.7621C198.757 22.8628 199.526 24.1497 200.023 25.5487C200.521 26.9477 200.736 28.4312 200.658 29.9139ZM193.929 29.9139C193.902 28.8636 193.567 27.8444 192.964 26.9839C192.361 26.1233 191.518 25.4597 190.54 25.076C189.562 24.6924 188.492 24.6057 187.465 24.8269C186.438 25.048 185.499 25.5672 184.765 26.3195C184.032 27.0717 183.536 28.0236 183.341 29.0559C183.146 30.0883 183.26 31.1553 183.668 32.1234C184.076 33.0915 184.761 33.9176 185.636 34.4985C186.512 35.0794 187.539 35.3892 188.59 35.3891C189.311 35.4216 190.031 35.3011 190.703 35.0356C191.375 34.7701 191.983 34.3655 192.487 33.8484C192.991 33.3314 193.38 32.7135 193.628 32.0354C193.877 31.3573 193.979 30.6343 193.929 29.9139Z" fill="white"/>
<path d="M221.43 34.3966C221.43 39.5571 216.943 41.7556 212.098 41.7556C210.14 41.9327 208.174 41.5184 206.455 40.5662C204.735 39.6141 203.341 38.1678 202.452 36.4146L208.284 33.0961C208.521 33.9065 209.029 34.6109 209.723 35.0916C210.417 35.5722 211.256 35.8 212.098 35.7368C213.713 35.7368 214.518 35.2417 214.518 34.346C214.518 31.8769 203.482 33.1797 203.482 25.4158C203.482 20.526 207.608 18.0591 212.285 18.0591C214.039 18.004 215.775 18.4203 217.314 19.2644C218.852 20.1085 220.136 21.3497 221.032 22.8587L215.291 25.955C215.04 25.3661 214.621 24.8642 214.086 24.512C213.551 24.1598 212.925 23.9728 212.285 23.9744C211.118 23.9744 210.401 24.4145 210.401 25.231C210.394 27.8057 221.43 26.1002 221.43 34.3966Z" fill="white"/>
<path d="M246.027 18.6968V41.1301H239.297V39.0175C238.52 39.9482 237.533 40.6814 236.417 41.1573C235.302 41.6331 234.09 41.838 232.88 41.7551C228.349 41.7551 224.491 38.5246 224.491 32.4662V18.6968H231.221V31.4847C231.164 32.0194 231.225 32.56 231.398 33.0689C231.572 33.5778 231.854 34.0427 232.226 34.4313C232.598 34.8199 233.049 35.1228 233.55 35.3189C234.051 35.515 234.588 35.5997 235.125 35.5669C237.592 35.5669 239.306 34.1321 239.306 30.9456V18.6968H246.027Z" fill="white"/>
<path d="M284.599 27.3538V41.1298H277.87V27.9392C277.87 25.6967 276.791 24.2597 274.639 24.2597C272.394 24.2597 271.14 25.831 271.14 28.4784V41.1298H264.408V27.9392C264.408 25.6967 263.332 24.2597 261.178 24.2597C258.935 24.2597 257.679 25.831 257.679 28.4784V41.1298H250.949V18.6965H257.69V20.7519C258.387 19.8367 259.303 19.1108 260.353 18.6407C261.403 18.1705 262.555 17.9711 263.702 18.0605C264.854 18.0042 266.001 18.2472 267.031 18.7659C268.061 19.2847 268.939 20.0614 269.58 21.0204C270.326 20.017 271.314 19.2191 272.452 18.7015C273.59 18.1838 274.841 17.9633 276.087 18.0605C281.237 18.0693 284.599 21.7466 284.599 27.3538Z" fill="white"/>
<path d="M290.301 18.5582C293.06 18.5582 295.297 16.3216 295.297 13.5627C295.297 10.8038 293.06 8.56726 290.301 8.56726C287.542 8.56726 285.306 10.8038 285.306 13.5627C285.306 16.3216 287.542 18.5582 290.301 18.5582Z" fill="white"/>
<path d="M72.3018 8.37811H79.0335V41.1302H72.3018V8.37811ZM82.845 29.9136C82.8376 27.5617 83.5283 25.2605 84.8295 23.3013C86.1308 21.3422 87.9841 19.8132 90.1549 18.9081C92.3256 18.0029 94.7162 17.7622 97.0238 18.2165C99.3314 18.6708 101.452 19.7996 103.118 21.4601C104.784 23.1205 105.919 25.2378 106.381 27.544C106.842 29.8502 106.609 32.2415 105.711 34.4151C104.813 36.5887 103.289 38.4468 101.334 39.7543C99.3794 41.0617 97.0804 41.7596 94.7285 41.7596C93.1664 41.7763 91.6167 41.4816 90.1698 40.8927C88.723 40.3037 87.408 39.4324 86.3016 38.3295C85.1953 37.2267 84.3198 35.9144 83.7263 34.4694C83.1328 33.0244 82.8332 31.4757 82.845 29.9136ZM99.8956 29.9136C99.8692 28.899 99.5442 27.9148 98.9614 27.084C98.3785 26.2532 97.5636 25.6127 96.6187 25.2427C95.6737 24.8726 94.6406 24.7893 93.6485 25.0034C92.6565 25.2174 91.7496 25.7192 91.0412 26.4459C90.3329 27.1727 89.8546 28.0922 89.6661 29.0894C89.4776 30.0866 89.5874 31.1172 89.9816 32.0524C90.3758 32.9876 91.037 33.7857 91.8825 34.3471C92.728 34.9084 93.7202 35.208 94.7351 35.2083C95.43 35.2281 96.1215 35.1037 96.766 34.843C97.4105 34.5822 97.9939 34.1908 98.4796 33.6933C98.9653 33.1959 99.3426 32.6032 99.5878 31.9527C99.8331 31.3021 99.9408 30.6078 99.9044 29.9136H99.8956ZM133.453 18.6903V40.0035C133.453 47.5407 127.575 50.725 121.609 50.725C119.509 50.8835 117.406 50.4608 115.53 49.5032C113.655 48.5455 112.079 47.09 110.976 45.296L116.717 41.9753C117.181 42.9115 117.919 43.684 118.833 44.1894C119.748 44.6947 120.794 44.9088 121.834 44.8031C122.497 44.8937 123.172 44.8342 123.81 44.6289C124.447 44.4237 125.03 44.078 125.516 43.6173C126.001 43.1566 126.378 42.5928 126.616 41.9673C126.855 41.3418 126.95 40.6707 126.895 40.0035V37.9393C126.107 38.9033 125.104 39.6692 123.966 40.1756C122.828 40.6819 121.588 40.9147 120.344 40.8551C117.383 40.7631 114.574 39.5221 112.512 37.395C110.45 35.2679 109.297 32.4217 109.297 29.4591C109.297 26.4966 110.45 23.6504 112.512 21.5233C114.574 19.3961 117.383 18.1551 120.344 18.0631C121.588 18.0036 122.828 18.2364 123.966 18.7427C125.104 19.2491 126.107 20.015 126.895 20.979V18.6903H133.453ZM126.904 29.458C126.948 28.3745 126.668 27.3025 126.098 26.3798C125.528 25.4571 124.695 24.726 123.707 24.2804C122.718 23.8347 121.619 23.695 120.55 23.8791C119.481 24.0633 118.492 24.5628 117.71 25.3136C116.927 26.0644 116.387 27.0321 116.159 28.0923C115.931 29.1524 116.025 30.2566 116.43 31.2628C116.834 32.269 117.53 33.1312 118.428 33.7386C119.327 34.3461 120.386 34.6709 121.471 34.6714C122.178 34.7211 122.887 34.6222 123.554 34.3812C124.221 34.1402 124.829 33.7623 125.341 33.2719C125.853 32.7815 126.256 32.1894 126.525 31.5337C126.795 30.878 126.924 30.1732 126.904 29.4646V29.458ZM137.265 29.8982C137.257 27.5463 137.948 25.245 139.249 23.2859C140.55 21.3268 142.404 19.7978 144.575 18.8926C146.745 17.9875 149.136 17.7468 151.443 18.2011C153.751 18.6554 155.872 19.7842 157.538 21.4447C159.203 23.1051 160.339 25.2224 160.8 27.5286C161.262 29.8348 161.029 32.2261 160.13 34.3997C159.232 36.5733 157.709 38.4314 155.754 39.7389C153.799 41.0463 151.5 41.7442 149.148 41.7442C147.587 41.7609 146.039 41.4667 144.593 40.8787C143.147 40.2907 141.833 39.4207 140.727 38.3195C139.621 37.2183 138.745 35.9079 138.15 34.4647C137.556 33.0215 137.255 31.4744 137.265 29.9136V29.8982ZM154.315 29.8982C154.289 28.883 153.964 27.8981 153.381 27.0666C152.799 26.2351 151.983 25.5939 151.038 25.2234C150.092 24.8529 149.059 24.7694 148.066 24.9835C147.073 25.1975 146.166 25.6996 145.457 26.4268C144.748 27.154 144.27 28.0741 144.081 29.0719C143.893 30.0698 144.003 31.101 144.397 32.0367C144.792 32.9723 145.454 33.7708 146.3 34.3322C147.146 34.8936 148.139 35.193 149.155 35.1929C149.848 35.2113 150.537 35.0864 151.179 34.8261C151.821 34.5657 152.403 34.1755 152.887 33.6799C153.372 33.1842 153.749 32.5939 153.995 31.9458C154.24 31.2977 154.349 30.6058 154.315 29.9136V29.8982Z" fill="white"/>
</svg>
