<svg width="208" height="59" viewBox="0 0 208 59" fill="none" xmlns="http://www.w3.org/2000/svg">
<path d="M30.4434 0C26.5694 0 22.7332 0.763123 19.1541 2.24554C15.575 3.72813 12.3231 5.90101 9.58365 8.6403C6.84437 11.3797 4.67148 14.6317 3.1889 18.2108C1.70648 21.7899 0.943359 25.6261 0.943359 29.5C0.943359 33.3739 1.70648 37.2101 3.1889 40.7892C4.67148 44.3683 6.84437 47.6203 9.58365 50.3597C12.3231 53.099 15.575 55.2719 19.1541 56.7545C22.7332 58.2369 26.5694 59 30.4434 59V44.25C28.5063 44.25 26.5883 43.8685 24.7987 43.1271C23.0092 42.3859 21.3832 41.2995 20.0135 39.9298C18.6439 38.5602 17.5574 36.9342 16.8162 35.1446C16.0748 33.3551 15.6934 31.4371 15.6934 29.5C15.6934 27.5629 16.0748 25.6449 16.8162 23.8554C17.5574 22.0658 18.6439 20.4398 20.0135 19.0702C21.3832 17.7005 23.0092 16.6141 24.7987 15.8729C26.5883 15.1315 28.5063 14.75 30.4434 14.75V0Z" fill="#0F52FF"/>
<path d="M30.4437 39.3333C35.8745 39.3333 40.277 34.9308 40.277 29.5C40.277 24.0692 35.8745 19.6667 30.4437 19.6667C25.0129 19.6667 20.6104 24.0692 20.6104 29.5C20.6104 34.9308 25.0129 39.3333 30.4437 39.3333Z" fill="#0F52FF"/>
<path d="M0.943359 29.5C0.943359 33.3739 1.70648 37.2101 3.1889 40.7892C4.67148 44.3683 6.84437 47.6203 9.58365 50.3597C12.3231 53.099 15.575 55.2719 19.1541 56.7545C22.7332 58.2369 26.5694 59 30.4434 59C34.3173 59 38.1535 58.2369 41.7326 56.7545C45.3117 55.2719 48.5636 53.099 51.3031 50.3597C54.0423 47.6203 56.2152 44.3683 57.6978 40.7892C59.1802 37.2101 59.9434 33.3739 59.9434 29.5H45.1934C45.1934 31.4371 44.8119 33.3551 44.0705 35.1446C43.3293 36.9342 42.2429 38.5602 40.8732 39.9298C39.5036 41.2995 37.8775 42.3859 36.088 43.1271C34.2984 43.8685 32.3804 44.25 30.4434 44.25C28.5063 44.25 26.5883 43.8685 24.7987 43.1271C23.0092 42.3859 21.3832 41.2995 20.0135 39.9298C18.6439 38.5602 17.5574 36.9342 16.8162 35.1446C16.0748 33.3551 15.6934 31.4371 15.6934 29.5H0.943359Z" fill="#5BD0F4"/>
<path d="M40.2771 29.5001C40.2771 26.8922 39.241 24.3911 37.397 22.5469C35.5529 20.7027 33.0518 19.6667 30.4438 19.6667C27.8358 19.6667 25.3347 20.7027 23.4906 22.5469C21.6464 24.3911 20.6104 26.8922 20.6104 29.5001H30.4438H40.2771Z" fill="#5BD0F4"/>
<path d="M75.3504 18.4164H71.6865V38.7714H75.3504V18.4164Z" fill="#0F52FF"/>
<path d="M77.7422 31.5604C77.7422 36.2711 80.999 39.179 85.3026 39.179C89.6062 39.179 92.863 36.2711 92.863 31.5604C92.863 26.8497 89.6062 23.9418 85.3026 23.9418C80.999 23.9418 77.7422 26.8497 77.7422 31.5604ZM81.4061 31.5604C81.4061 28.7689 83.0345 27.1405 85.3026 27.1405C87.5707 27.1405 89.1991 28.7689 89.1991 31.5604C89.1991 34.352 87.5707 35.9804 85.3026 35.9804C83.0345 35.9804 81.4061 34.352 81.4061 31.5604Z" fill="#0F52FF"/>
<path d="M105.956 24.3489V26.2971H105.665C104.793 25.0468 103.397 23.9418 100.896 23.9418C97.4652 23.9418 94.3828 26.8497 94.3828 31.3278C94.3828 35.8059 97.4652 38.7137 100.896 38.7137C103.397 38.7137 104.793 37.5796 105.607 36.4456H105.898V37.8414C105.898 40.6329 104.27 41.9124 101.885 41.9124C99.5006 41.9124 98.2793 40.6329 97.7849 38.9754L94.4991 40.4003C95.2552 42.5811 97.4651 44.9947 101.943 44.9947C106.538 44.9947 109.562 42.5811 109.562 37.9285V24.3489H105.956ZM102.001 35.5733C99.7333 35.5733 98.0467 33.9449 98.0467 31.3278C98.0467 28.7107 99.7333 27.0823 102.001 27.0823C104.27 27.0823 105.956 28.7107 105.956 31.3278C105.956 33.9449 104.27 35.5733 102.001 35.5733Z" fill="#0F52FF"/>
<path d="M111.933 31.5604C111.933 36.2711 115.189 39.179 119.493 39.179C123.797 39.179 127.053 36.2711 127.053 31.5604C127.053 26.8497 123.797 23.9418 119.493 23.9418C115.189 23.9418 111.933 26.8497 111.933 31.5604ZM115.597 31.5604C115.597 28.7689 117.225 27.1405 119.493 27.1405C121.761 27.1405 123.39 28.7689 123.39 31.5604C123.39 34.352 121.761 35.9804 119.493 35.9804C117.225 35.9804 115.597 34.352 115.597 31.5604Z" fill="#0F52FF"/>
<path d="M129.93 20.161C129.93 21.6441 131.064 22.6618 132.519 22.6618C133.972 22.6618 135.107 21.6441 135.107 20.161C135.107 18.6781 133.972 17.6603 132.519 17.6603C131.064 17.6603 129.93 18.6781 129.93 20.161ZM134.35 24.3483H130.687V38.7713H134.35V24.3483Z" fill="#5BD0F4"/>
<path d="M137.614 44.5876H141.279V36.9109H141.569C142.383 38.074 143.779 39.179 146.281 39.179C149.711 39.179 152.794 36.2711 152.794 31.5604C152.794 26.8497 149.711 23.9418 146.281 23.9418C143.779 23.9418 142.383 25.0468 141.512 26.2973H141.22V24.3489H137.614V44.5876ZM145.175 36.0385C142.907 36.0385 141.22 34.4101 141.22 31.5604C141.22 28.7107 142.907 27.0823 145.175 27.0823C147.444 27.0823 149.129 28.7107 149.129 31.5604C149.129 34.4101 147.444 36.0385 145.175 36.0385Z" fill="#5BD0F4"/>
<path d="M154.931 28.3909C154.931 31.2406 157.315 32.2875 160.339 32.869L161.096 33.0143C162.898 33.3633 163.712 33.7996 163.712 34.7301C163.712 35.6606 162.898 36.3875 161.212 36.3875C159.525 36.3875 158.16 35.6896 157.78 33.5959L154.407 34.4683C154.903 37.4924 157.431 39.179 161.212 39.179C164.876 39.179 167.261 37.4635 167.261 34.4393C167.261 31.4149 164.818 30.6009 161.561 29.9612L160.805 29.8157C159.292 29.5249 158.478 29.1178 158.478 28.1583C158.478 27.286 159.235 26.7334 160.631 26.7334C162.027 26.7334 163.014 27.3149 163.363 28.8852L166.679 27.8675C165.981 25.5412 163.859 23.9418 160.631 23.9418C157.199 23.9418 154.931 25.5412 154.931 28.3909Z" fill="#5BD0F4"/>
<path d="M183.718 38.7714V24.3484H180.055V31.7925C180.055 34.4677 178.747 36.038 176.507 36.038C174.53 36.038 173.425 34.9621 173.425 32.7812V24.3484H169.761V32.9556C169.761 36.5324 172.001 39.004 175.374 39.004C178.019 39.004 179.241 37.8408 179.823 36.6195H180.113V38.7714H183.718Z" fill="#5BD0F4"/>
<path d="M186.969 24.3486V38.7716H190.633V30.1643C190.633 28.187 191.564 27.082 193.25 27.082C194.704 27.082 195.576 27.8962 195.576 29.4664V38.7716H199.241V30.1643C199.241 28.187 200.171 27.082 201.857 27.082C203.312 27.082 204.183 27.8962 204.183 29.4664V38.7716H207.848V29.292C207.848 25.8025 205.695 24.116 203.02 24.116C200.665 24.116 199.59 25.1628 198.892 26.3841H198.6C197.931 25.0175 196.739 24.116 194.645 24.116C192.552 24.116 191.417 25.0465 190.866 26.1515H190.574V24.3486H186.969Z" fill="#5BD0F4"/>
</svg>
