<svg width="213" height="59" viewBox="0 0 213 59" fill="none" xmlns="http://www.w3.org/2000/svg">
<path fill-rule="evenodd" clip-rule="evenodd" d="M105.881 6.4351C107.933 4.38239 111.262 4.38239 113.315 6.4351C115.367 8.48796 115.367 11.8162 113.315 13.869L100.799 26.3845C97.2058 21.5688 97.5961 14.7197 101.97 10.3457L105.881 6.4351Z" fill="#4F9E91"/>
<path fill-rule="evenodd" clip-rule="evenodd" d="M123.772 34.672C125.825 36.7247 125.825 40.0531 123.772 42.1058C121.72 44.1586 118.392 44.1586 116.339 42.1058L103.823 29.5904C108.639 25.9971 115.488 26.3874 119.862 30.7614L123.772 34.672Z" fill="#EBE1C5"/>
<path fill-rule="evenodd" clip-rule="evenodd" d="M95.535 52.5645C93.4823 54.6173 90.1539 54.6173 88.1012 52.5645C86.0483 50.5116 86.0483 47.1834 88.1012 45.1305L100.617 32.6152C104.21 37.4309 103.82 44.28 99.4456 48.6539L95.535 52.5645Z" fill="#EBCC6E"/>
<path fill-rule="evenodd" clip-rule="evenodd" d="M77.6432 24.3267C75.5903 22.2738 75.5903 18.9456 77.6432 16.8927C79.696 14.8399 83.0242 14.8399 85.0771 16.8927L97.5926 29.4082C92.7769 33.0015 85.9277 32.6112 81.5538 28.2373L77.6432 24.3267Z" fill="#ED834E"/>
<path fill-rule="evenodd" clip-rule="evenodd" d="M103.083 51.0315C106.11 47.666 107.517 43.3595 107.303 39.1195L113.314 45.1302C113.329 45.1451 113.344 45.16 113.359 45.175V49.4662C113.359 52.3693 111.006 54.7227 108.103 54.7227C105.745 54.7227 103.749 53.1701 103.083 51.0315Z" fill="#ED834E"/>
<path fill-rule="evenodd" clip-rule="evenodd" d="M79.1756 31.8751C82.541 34.9022 86.8474 36.3091 91.0874 36.0956L85.0769 42.1063C85.0619 42.1212 85.0469 42.1363 85.0321 42.1512H80.7409C77.8378 42.1514 75.4844 39.7978 75.4844 36.8947C75.4844 34.5368 77.037 32.5414 79.1756 31.8751Z" fill="#4F9E91"/>
<path fill-rule="evenodd" clip-rule="evenodd" d="M122.24 27.1248C118.875 24.0978 114.568 22.6909 110.328 22.9042L116.339 16.8937C116.354 16.8787 116.368 16.8637 116.383 16.8486H120.675C123.578 16.8486 125.932 19.2022 125.932 22.1053C125.932 24.4633 124.379 26.4586 122.24 27.1248Z" fill="#EBCC6E"/>
<path fill-rule="evenodd" clip-rule="evenodd" d="M98.3327 7.96787C95.3057 11.3332 93.899 15.6397 94.1123 19.8798L88.1018 13.8692C88.0867 13.8543 88.0717 13.8393 88.0566 13.8244V9.53318C88.0566 6.63007 90.4101 4.27649 93.3132 4.27649C95.6712 4.27649 97.6665 5.82922 98.3327 7.96787Z" fill="#EBE1C5"/>
<path fill-rule="evenodd" clip-rule="evenodd" d="M93.313 0C88.0478 0 83.7796 4.26828 83.7796 9.5334V11.3876C80.612 10.56 77.1015 11.3872 74.6192 13.8694C70.8962 17.5925 70.8962 23.6287 74.6192 27.3517L75.9303 28.6628C73.1052 30.3174 71.208 33.3846 71.208 36.8949C71.208 42.16 75.4763 46.4283 80.7414 46.4283H82.5955C81.7678 49.5959 82.595 53.1064 85.0773 55.5885C88.8003 59.3115 94.8366 59.3115 98.5596 55.5885L102.47 51.678C105.92 48.2284 107.531 43.6363 107.304 39.1196L113.314 45.1303C117.037 48.8533 123.074 48.8533 126.797 45.1303C130.52 41.4072 130.52 35.371 126.797 31.6481L125.486 30.3372C128.31 28.6826 130.208 25.6154 130.208 22.1051C130.208 16.84 125.939 12.5717 120.674 12.5717H118.82C119.648 9.40397 118.821 5.89349 116.338 3.41122C112.616 -0.31182 106.579 -0.31182 102.856 3.41122L98.9457 7.32183C95.496 10.7715 93.8848 15.3634 94.1122 19.8801L88.1015 13.8694C88.0865 13.8545 88.0715 13.8395 88.0564 13.8246V9.5334C88.0564 6.63029 90.4099 4.27686 93.313 4.27686C95.671 4.27686 97.6663 5.82944 98.3325 7.96809C98.53 7.74858 98.7343 7.53306 98.9455 7.32183L101.545 4.72225C99.8904 1.89724 96.8233 0 93.313 0ZM116.383 16.8486C116.368 16.8635 116.354 16.8786 116.338 16.8935L110.328 22.904C114.568 22.6907 118.874 24.0975 122.239 27.1247C124.378 26.4584 125.932 24.463 125.932 22.1051C125.932 19.202 123.578 16.8486 120.674 16.8486H116.383ZM85.0323 42.1514C85.0473 42.1363 85.0622 42.1213 85.0773 42.1063L91.0878 36.0957C86.8478 36.3091 82.5415 34.9022 79.1761 31.8753C77.0375 32.5416 75.4847 34.5369 75.4847 36.8949C75.4847 39.798 77.8383 42.1514 80.7414 42.1514H85.0323ZM79.0122 31.7259C78.849 31.5752 78.6883 31.4206 78.5298 31.2622V31.2623C78.6883 31.4208 78.849 31.5752 79.0122 31.7259ZM108.103 59C104.592 59 101.525 57.1026 99.8706 54.2776L102.47 51.678C102.681 51.4668 102.886 51.2513 103.083 51.0318C103.749 53.1704 105.745 54.7231 108.103 54.7231C111.006 54.7231 113.359 52.3697 113.359 49.4666V45.1754C114.591 46.3912 116.072 47.2035 117.636 47.6123V49.4666C117.636 54.7317 113.368 59 108.103 59ZM113.314 6.43533C111.261 4.38262 107.933 4.38262 105.88 6.43533L101.97 10.3459C97.5959 14.72 97.2055 21.569 100.799 26.3848L113.314 13.8693C115.367 11.8164 115.367 8.48819 113.314 6.43533ZM123.772 42.1062C125.825 40.0533 125.825 36.7251 123.772 34.6722L119.862 30.7616C115.488 26.3877 108.639 25.9974 103.823 29.5907L116.338 42.1062C118.391 44.159 121.72 44.159 123.772 42.1062ZM95.5353 52.5644C93.4825 54.6172 90.1542 54.6172 88.1014 52.5644C86.0487 50.5115 86.0487 47.1833 88.1014 45.1304L100.617 32.6149C104.21 37.4307 103.82 44.2799 99.4459 48.6538L95.5353 52.5644ZM77.6433 16.8935C75.5906 18.9464 75.5906 22.2746 77.6433 24.3275L81.5539 28.2381C85.928 32.612 92.777 33.0023 97.5928 29.409L85.0773 16.8935C83.0244 14.8408 79.6962 14.8408 77.6433 16.8935Z" fill="#3D3A2C"/>
<path d="M0.644531 19.2781H5.31974V33.8057H13.3495V37.7414H0.644531V19.2781Z" fill="white"/>
<path d="M21.8381 38.1376C20.2708 38.1376 18.8972 37.8558 17.7174 37.2924C16.5376 36.7112 15.622 35.9188 14.9704 34.9152C14.3365 33.8938 14.0195 32.7228 14.0195 31.402C14.0195 30.0814 14.3365 28.9192 14.9704 27.9155C15.622 26.8941 16.5376 26.1017 17.7174 25.5383C18.8972 24.9571 20.2708 24.6666 21.8381 24.6666C23.4053 24.6666 24.7788 24.9571 25.9586 25.5383C27.1384 26.1017 28.0453 26.8941 28.6792 27.9155C29.3307 28.9192 29.6565 30.0814 29.6565 31.402C29.6565 32.7228 29.3307 33.8938 28.6792 34.9152C28.0453 35.9188 27.1384 36.7112 25.9586 37.2924C24.7788 37.8558 23.4053 38.1376 21.8381 38.1376ZM21.8381 34.5189C22.7713 34.5189 23.5109 34.246 24.0567 33.7001C24.6203 33.1366 24.902 32.3706 24.902 31.402C24.902 30.4336 24.6203 29.6764 24.0567 29.1305C23.5109 28.567 22.7713 28.2853 21.8381 28.2853C20.9047 28.2853 20.1564 28.567 19.5929 29.1305C19.0469 29.6764 18.774 30.4336 18.774 31.402C18.774 32.3706 19.0469 33.1366 19.5929 33.7001C20.1564 34.246 20.9047 34.5189 21.8381 34.5189Z" fill="white"/>
<path d="M38.3891 43.8166C37.5438 43.8166 36.6897 43.7374 35.8269 43.5789C34.9817 43.4204 34.2508 43.2091 33.6346 42.9449V39.7225C35.0256 40.3211 36.6104 40.6205 38.3891 40.6205C39.6745 40.6205 40.599 40.3563 41.1624 39.8281C41.7436 39.2999 42.0341 38.525 42.0341 37.5036V36.7377C41.5235 37.1779 40.8895 37.5212 40.1323 37.7678C39.3927 38.0144 38.6003 38.1376 37.7551 38.1376C36.4168 38.1376 35.237 37.8558 34.2156 37.2924C33.1943 36.7288 32.3931 35.9364 31.812 34.9152C31.2484 33.8938 30.9668 32.7228 30.9668 31.402C30.9668 30.0638 31.2484 28.884 31.812 27.8627C32.3755 26.8413 33.1679 26.0576 34.1893 25.5118C35.2105 24.9484 36.3816 24.6666 37.7023 24.6666C39.5161 24.6666 41.0127 25.2213 42.1926 26.3307V25.0627H46.683V36.8698C46.683 39.0709 46.0049 40.7791 44.6491 41.9941C43.3109 43.2091 41.2241 43.8166 38.3891 43.8166ZM38.9173 34.5454C39.6393 34.5454 40.282 34.3605 40.8454 33.9907C41.409 33.6208 41.8052 33.1278 42.0341 32.5114V30.2928C41.7876 29.6764 41.3825 29.1921 40.8191 28.8399C40.2555 28.4702 39.6217 28.2853 38.9173 28.2853C37.9664 28.2853 37.2004 28.567 36.6193 29.1305C36.0381 29.6764 35.7476 30.4247 35.7476 31.3757C35.7476 32.3441 36.0381 33.1189 36.6193 33.7001C37.2004 34.2636 37.9664 34.5454 38.9173 34.5454Z" fill="white"/>
<path d="M55.6808 38.1376C54.1136 38.1376 52.7402 37.8558 51.5603 37.2924C50.3805 36.7112 49.4647 35.9188 48.8133 34.9152C48.1793 33.8938 47.8623 32.7228 47.8623 31.402C47.8623 30.0814 48.1793 28.9192 48.8133 27.9155C49.4647 26.8941 50.3805 26.1017 51.5603 25.5383C52.7402 24.9571 54.1136 24.6666 55.6808 24.6666C57.2481 24.6666 58.6215 24.9571 59.8014 25.5383C60.9812 26.1017 61.8881 26.8941 62.5221 27.9155C63.1735 28.9192 63.4994 30.0814 63.4994 31.402C63.4994 32.7228 63.1735 33.8938 62.5221 34.9152C61.8881 35.9188 60.9812 36.7112 59.8014 37.2924C58.6215 37.8558 57.2481 38.1376 55.6808 38.1376ZM55.6808 34.5189C56.6141 34.5189 57.3537 34.246 57.8997 33.7001C58.4631 33.1366 58.7449 32.3706 58.7449 31.402C58.7449 30.4336 58.4631 29.6764 57.8997 29.1305C57.3537 28.567 56.6141 28.2853 55.6808 28.2853C54.7476 28.2853 53.9991 28.567 53.4357 29.1305C52.8897 29.6764 52.6168 30.4336 52.6168 31.402C52.6168 32.3706 52.8897 33.1366 53.4357 33.7001C53.9991 34.246 54.7476 34.5189 55.6808 34.5189Z" fill="white"/>
<path d="M138.062 19.2781H142.738V37.7414H138.062V19.2781Z" fill="white"/>
<path d="M145.105 25.0627H149.596V26.3307C150.775 25.2213 152.272 24.6666 154.086 24.6666C155.407 24.6666 156.578 24.9484 157.599 25.5118C158.621 26.0576 159.412 26.8413 159.976 27.8627C160.54 28.8664 160.822 30.0374 160.822 31.3757C160.822 32.6963 160.54 33.8762 159.976 34.9152C159.412 35.9364 158.621 36.7288 157.599 37.2924C156.596 37.8558 155.424 38.1376 154.086 38.1376C153.241 38.1376 152.431 38.0055 151.657 37.7414C150.9 37.4949 150.265 37.1514 149.755 36.7112V43.526H145.105V25.0627ZM152.871 34.5189C153.822 34.5189 154.589 34.2372 155.169 33.6737C155.75 33.1102 156.041 32.3441 156.041 31.3757C156.041 30.4071 155.75 29.65 155.169 29.1041C154.589 28.5406 153.822 28.2588 152.871 28.2588C152.167 28.2588 151.533 28.4437 150.969 28.8135C150.405 29.1657 150.002 29.65 149.755 30.2663V32.5114C150.002 33.1278 150.405 33.6208 150.969 33.9907C151.533 34.3429 152.167 34.5189 152.871 34.5189Z" fill="white"/>
<path d="M167.752 38.1376C166.731 38.1376 165.666 38.032 164.557 37.8206C163.448 37.627 162.566 37.3452 161.915 36.9754V33.568C162.637 33.9907 163.499 34.3429 164.504 34.6246C165.524 34.8887 166.458 35.0208 167.304 35.0208C167.919 35.0208 168.369 34.9767 168.65 34.8887C168.933 34.8007 169.073 34.6246 169.073 34.3605C169.073 34.1491 168.977 33.9818 168.783 33.8586C168.607 33.7177 168.271 33.5768 167.779 33.4359C167.304 33.2775 166.749 33.1102 166.115 32.934C165.041 32.6171 164.196 32.2913 163.579 31.9567C162.962 31.6221 162.505 31.1995 162.205 30.6889C161.906 30.1783 161.757 29.5356 161.757 28.7607C161.757 27.3871 162.294 26.3659 163.368 25.6967C164.459 25.0099 165.947 24.6666 167.832 24.6666C168.748 24.6666 169.708 24.7635 170.711 24.9571C171.733 25.1509 172.497 25.4062 173.009 25.7232V29.0777C172.481 28.7255 171.776 28.4349 170.895 28.206C170.033 27.977 169.222 27.8627 168.465 27.8627C167.867 27.8627 167.4 27.9242 167.066 28.0475C166.731 28.1532 166.564 28.3468 166.564 28.6286C166.564 28.8928 166.731 29.0953 167.066 29.2362C167.4 29.377 167.999 29.5532 168.862 29.7644C169.425 29.9054 169.663 29.9669 169.574 29.9493C170.702 30.2487 171.573 30.5833 172.19 30.9531C172.807 31.3229 173.237 31.7631 173.484 32.2737C173.749 32.7668 173.88 33.4007 173.88 34.1756C173.88 35.3906 173.352 36.359 172.296 37.081C171.256 37.7854 169.742 38.1376 167.752 38.1376Z" fill="white"/>
<path d="M180.821 38.1378C179.078 38.1378 177.766 37.6535 176.886 36.6851C176.024 35.7165 175.592 34.4399 175.592 32.8551V25.0629H180.241V32.3267C180.241 33.7883 180.901 34.519 182.222 34.519C182.821 34.519 183.367 34.3782 183.859 34.0964C184.352 33.8146 184.757 33.4009 185.074 32.8551V25.0629H189.723V37.7415H185.233V36.3681C184.688 36.9491 184.026 37.3893 183.251 37.6887C182.478 37.9881 181.667 38.1378 180.821 38.1378Z" fill="white"/>
<path d="M192.103 25.0627H196.409V26.4363C196.937 25.8729 197.545 25.4414 198.231 25.142C198.917 24.825 199.648 24.6666 200.423 24.6666C201.374 24.6666 202.132 24.8074 202.695 25.0892C203.277 25.371 203.743 25.7936 204.095 26.357C204.623 25.8288 205.266 25.4149 206.023 25.1157C206.781 24.8163 207.547 24.6666 208.321 24.6666C209.994 24.6666 211.183 25.0981 211.887 25.9609C212.591 26.8061 212.943 28.0299 212.943 29.6323V37.7414H208.506V30.2928C208.506 29.5884 208.374 29.0777 208.109 28.7607C207.846 28.4437 207.405 28.2853 206.79 28.2853C205.997 28.2853 205.353 28.567 204.861 29.1305C204.879 29.4298 204.887 29.8878 204.887 30.504V37.7414H200.45V30.1079C200.45 29.4563 200.336 28.9896 200.107 28.7079C199.877 28.4261 199.472 28.2853 198.892 28.2853C197.993 28.2853 197.219 28.7871 196.567 29.7909V37.7414H192.103V25.0627Z" fill="white"/>
</svg>
